<svg width="3010" height="867" xmlns="http://www.w3.org/2000/svg" xmlns:xlink="http://www.w3.org/1999/xlink" xml:space="preserve" overflow="hidden"><g transform="translate(-247 -385)"><rect x="261" y="399" width="2982" height="839" stroke="#80350E" stroke-width="27.5" stroke-miterlimit="8" fill="#C04F15"/><path d="M873.5 851.5 893.9 719.5 975.5 719.5 955.1 851.5Z" stroke="#80350E" stroke-width="6.875" stroke-miterlimit="8" fill="none" fill-rule="evenodd"/><path d="M845.995 933.5 655.004 933.5C611.648 933.5 576.5 898.353 576.5 854.996L576.5 655.5 924.5 655.5 924.5 854.996C924.5 898.353 889.352 933.5 845.995 933.5Z" stroke="#80350E" stroke-width="6.875" stroke-miterlimit="8" fill="#80350E" fill-rule="evenodd"/><path d="M953.5 945.5 899.821 975.5 601.179 975.5 547.5 945.5Z" stroke="#80350E" stroke-width="6.875" stroke-miterlimit="8" fill="#80350E" fill-rule="evenodd"/><text fill="#422100" font-family="Aptos,Aptos_MSFontService,sans-serif" font-weight="700" font-size="83" transform="matrix(1 0 0 1 652.609 813)">F</text><text fill="#422100" font-family="Aptos,Aptos_MSFontService,sans-serif" font-weight="700" font-size="83" transform="matrix(1 0 0 1 696.082 813)">e</text><text fill="#422100" font-family="Aptos,Aptos_MSFontService,sans-serif" font-weight="700" font-size="50" transform="matrix(1 0 0 1 741.125 832)">2</text><text fill="#422100" font-family="Aptos,Aptos_MSFontService,sans-serif" font-weight="700" font-size="83" transform="matrix(1 0 0 1 770.344 813)">O</text><text fill="#422100" font-family="Aptos,Aptos_MSFontService,sans-serif" font-weight="700" font-size="50" transform="matrix(1 0 0 1 829.068 834)">3</text><text fill="#422100" font-family="Aptos,Aptos_MSFontService,sans-serif" font-weight="700" font-size="147" transform="matrix(1 0 0 1 1843.06 762)">Caffeine</text><text fill="#422100" font-family="Aptos,Aptos_MSFontService,sans-serif" font-weight="700" font-size="64" transform="matrix(1 0 0 1 1215.67 862)">A performant, memory</text><text fill="#422100" font-family="Aptos,Aptos_MSFontService,sans-serif" font-weight="700" font-size="64" transform="matrix(1 0 0 1 1875.21 862)">-</text><text fill="#422100" font-family="Aptos,Aptos_MSFontService,sans-serif" font-weight="700" font-size="64" transform="matrix(1 0 0 1 1896.98 862)">efficient Java Virtual Machine written in </text><text fill="#422100" font-family="Aptos,Aptos_MSFontService,sans-serif" font-weight="700" font-size="64" transform="matrix(1 0 0 1 2050.89 939)">Rust.</text></g></svg>